<?xml version="1.0" standalone="no"?>
<!DOCTYPE svg PUBLIC "-//W3C//DTD SVG 20010904//EN"
 "http://www.w3.org/TR/2001/REC-SVG-20010904/DTD/svg10.dtd">
<svg version="1.0" xmlns="http://www.w3.org/2000/svg"
 width="1024.000000pt" height="1024.000000pt" viewBox="0 0 1024.000000 1024.000000"
 preserveAspectRatio="xMidYMid meet">

<g transform="translate(0.000000,1024.000000) scale(0.100000,-0.100000)"
fill="#5eb5b8" stroke="none">
<path d="M196 7664 c-35 -11 -66 -32 -107 -73 -98 -99 -89 154 -89 -2471 0
-2625 -9 -2372 89 -2471 68 -68 138 -94 227 -87 110 9 223 97 253 198 16 54
16 4666 0 4720 -44 145 -221 232 -373 184z"/>
<path d="M3422 7666 c-82 -27 -151 -93 -182 -174 -20 -52 -20 -69 -20 -2372 0
-2314 0 -2319 21 -2374 28 -75 109 -150 186 -172 141 -41 286 25 349 160 l24
51 0 2335 0 2335 -24 51 c-30 64 -86 121 -144 147 -58 25 -154 31 -210 13z"/>
<path d="M6634 7662 c-75 -27 -128 -73 -163 -144 l-31 -61 0 -2337 0 -2337 31
-62 c64 -129 205 -188 347 -146 73 22 154 99 181 171 21 55 21 60 21 2374 0
2294 0 2320 -20 2373 -53 141 -223 220 -366 169z"/>
<path d="M9841 7658 c-61 -23 -127 -83 -156 -143 -20 -39 -20 -71 -23 -2375
-2 -1700 0 -2346 9 -2376 28 -103 140 -192 253 -202 89 -7 159 19 227 87 98
99 89 -154 89 2471 0 2625 9 2372 -89 2471 -44 44 -70 61 -111 73 -71 21 -133
19 -199 -6z"/>
</g>
</svg>
