<?xml version="1.0" standalone="no"?>
<!DOCTYPE svg PUBLIC "-//W3C//DTD SVG 20010904//EN"
 "http://www.w3.org/TR/2001/REC-SVG-20010904/DTD/svg10.dtd">
<svg version="1.0" xmlns="http://www.w3.org/2000/svg"
 width="1024.000000pt" height="1024.000000pt" viewBox="0 0 1024.000000 1024.000000"
 preserveAspectRatio="xMidYMid meet">

<g transform="translate(0.000000,1024.000000) scale(0.100000,-0.100000)"
fill="#a85725" stroke="none">
<path d="M1882 8681 c-66 -23 -119 -65 -155 -123 -23 -38 -36 -86 -73 -289
-208 -1124 -457 -1853 -879 -2574 -156 -266 -326 -518 -607 -896 -76 -103
-145 -203 -153 -223 -8 -19 -15 -63 -15 -96 0 -33 63 -534 140 -1113 126 -943
143 -1057 166 -1104 31 -64 90 -116 161 -143 53 -20 76 -20 2012 -20 l1958 0
17 -167 c12 -114 24 -183 38 -215 24 -56 91 -121 156 -151 l47 -22 2560 -3
c1845 -2 2574 0 2612 8 95 20 180 97 212 190 12 36 161 1972 161 2095 0 107
-22 142 -216 350 -523 560 -625 743 -819 1461 -31 115 -66 223 -77 241 -33 54
-103 109 -165 128 -54 17 -101 18 -798 12 l-741 -7 -298 1243 c-164 683 -307
1258 -317 1278 -27 54 -109 123 -169 142 -48 16 -225 17 -2379 17 -2227 -1
-2328 -1 -2379 -19z m4433 -583 c89 -367 495 -2064 495 -2070 0 -4 -116 -8
-257 -9 -142 0 -375 -4 -518 -8 -290 -7 -304 -11 -380 -86 -51 -51 -60 -75
-121 -297 -260 -951 -483 -1309 -1057 -1699 -130 -89 -169 -132 -193 -217 -16
-53 -15 -70 35 -531 28 -262 51 -482 51 -488 0 -10 -361 -13 -1770 -13 -974 0
-1770 3 -1770 8 0 4 -51 390 -114 857 l-113 850 127 175 c344 472 544 786 736
1155 259 498 465 1069 625 1733 31 128 139 640 139 658 0 2 918 4 2040 4
l2040 0 5 -22z m2382 -2832 c112 -374 219 -617 372 -847 106 -159 178 -249
349 -439 70 -77 149 -165 175 -195 l49 -54 -56 -753 c-31 -414 -58 -777 -62
-805 l-5 -53 -2245 0 c-1234 0 -2244 3 -2244 7 0 11 -139 1304 -144 1340 -4
30 1 35 112 120 144 109 358 315 465 448 252 312 425 678 592 1253 l42 147
589 5 c324 3 897 5 1273 5 l684 0 54 -179z"/>
</g>
</svg>
