<?xml version="1.0" standalone="no"?>
<!DOCTYPE svg PUBLIC "-//W3C//DTD SVG 20010904//EN"
 "http://www.w3.org/TR/2001/REC-SVG-20010904/DTD/svg10.dtd">
<svg version="1.0" xmlns="http://www.w3.org/2000/svg"
 width="640.000000pt" height="512.000000pt" viewBox="0 0 640.000000 512.000000"
 preserveAspectRatio="xMidYMid meet">

<g transform="translate(0.000000,512.000000) scale(0.100000,-0.100000)"
fill="#4a68e2" stroke="none">
<path d="M6064 5044 c-309 -163 -564 -353 -726 -539 -96 -110 -180 -239 -286
-442 -122 -233 -168 -300 -292 -423 -117 -117 -258 -220 -450 -329 -180 -102
-210 -136 -210 -241 0 -114 87 -200 201 -200 44 0 69 9 155 54 289 153 541
346 698 534 88 107 158 218 266 422 115 219 172 301 285 415 109 110 253 215
440 323 212 121 245 157 245 261 0 63 -13 97 -53 140 -70 74 -164 82 -273 25z"/>
<path d="M2764 5061 c-17 -4 -89 -41 -160 -81 -369 -209 -609 -414 -776 -665
-26 -39 -94 -160 -153 -269 -127 -239 -171 -303 -289 -421 -111 -111 -211
-186 -381 -287 -234 -139 -231 -137 -260 -190 -73 -133 25 -298 176 -298 39 0
68 10 141 48 209 109 449 275 588 408 152 146 240 270 380 534 121 231 186
326 295 435 127 128 285 239 566 398 90 51 139 136 124 216 -8 44 -37 101 -61
122 -50 44 -131 65 -190 50z"/>
<path d="M5433 2259 c-37 -11 -223 -114 -333 -184 -272 -174 -490 -385 -627
-605 -22 -36 -75 -132 -118 -215 -131 -252 -211 -361 -363 -496 -84 -76 -263
-197 -410 -279 -128 -71 -166 -110 -183 -184 -30 -134 84 -259 220 -243 52 6
153 58 334 171 270 168 488 375 630 597 20 31 76 133 126 228 117 222 166 296
276 410 135 141 263 232 573 410 87 50 123 98 130 171 6 66 -18 129 -68 174
-56 50 -117 65 -187 45z"/>
<path d="M2015 2216 c-102 -49 -318 -183 -428 -264 -278 -206 -407 -360 -587
-702 -128 -242 -187 -328 -304 -445 -110 -109 -223 -193 -398 -297 -62 -36
-136 -80 -165 -97 -61 -37 -103 -109 -103 -175 1 -120 118 -220 234 -201 111
17 510 277 696 452 152 143 237 262 380 533 109 206 176 310 260 402 111 122
328 282 535 394 107 58 152 96 176 149 47 102 -5 224 -113 269 -58 25 -106 20
-183 -18z"/>
</g>
</svg>
