<?xml version="1.0" standalone="no"?>
<!DOCTYPE svg PUBLIC "-//W3C//DTD SVG 20010904//EN"
 "http://www.w3.org/TR/2001/REC-SVG-20010904/DTD/svg10.dtd">
<svg version="1.0" xmlns="http://www.w3.org/2000/svg"
 width="2048.000000pt" height="2048.000000pt" viewBox="0 0 2048.000000 2048.000000"
 preserveAspectRatio="xMidYMid meet">

<g transform="translate(0.000000,2048.000000) scale(0.100000,-0.100000)"
fill="#fca703" stroke="none">
<path d="M19750 18924 c-77 -21 -146 -54 -206 -100 -39 -30 -1122 -1072 -1954
-1880 l-75 -73 -215 120 c-1202 672 -2418 1065 -3730 1204 -611 64 -1305 72
-1860 19 -1281 -121 -2525 -580 -3585 -1322 -941 -659 -1756 -1546 -2367
-2577 -689 -1162 -1103 -1998 -1978 -4000 -588 -1344 -762 -1722 -1038 -2260
-66 -126 -179 -349 -254 -495 -160 -316 -265 -496 -443 -765 -305 -459 -570
-787 -1296 -1601 -477 -534 -632 -713 -665 -770 -137 -234 -101 -520 89 -708
56 -56 104 -89 217 -153 1939 -1087 4443 -1757 7335 -1963 708 -50 1204 -64
2020 -57 745 7 1040 18 1695 68 938 70 2102 233 2685 374 77 19 232 57 345 84
1090 266 2081 691 2885 1239 904 615 1591 1394 2045 2317 486 987 710 2203
614 3335 -98 1171 -553 2357 -1267 3305 -250 331 -634 738 -927 981 -932 774
-1980 1205 -3230 1329 -222 23 -679 31 -880 16 -979 -72 -1862 -393 -2619
-954 -1019 -753 -1722 -1908 -1831 -3006 -13 -132 -13 -600 0 -796 41 -602
159 -1095 365 -1522 298 -617 738 -1056 1382 -1377 338 -168 665 -282 1253
-434 l295 -77 315 1 c427 1 686 30 1015 114 903 231 1544 761 1965 1625 91
188 183 417 199 495 33 168 41 606 16 825 -61 523 -280 900 -670 1155 -106 69
-325 176 -400 195 -76 19 -214 19 -290 0 -257 -67 -436 -297 -436 -560 -1
-171 50 -296 170 -415 65 -64 94 -84 196 -135 242 -119 269 -178 270 -575 l0
-235 -38 -90 c-286 -669 -693 -1025 -1337 -1169 -183 -41 -329 -57 -570 -63
l-225 -5 -165 42 c-360 90 -634 176 -847 263 -799 329 -1164 849 -1279 1827
-9 80 -18 262 -21 445 -4 257 -2 330 12 430 54 385 218 791 480 1185 135 202
248 342 422 521 607 622 1357 991 2248 1106 194 25 731 25 953 0 795 -90 1481
-330 2095 -733 412 -271 762 -590 1081 -988 609 -758 1006 -1713 1121 -2693
36 -308 39 -548 14 -928 -73 -1108 -445 -2062 -1118 -2870 -105 -126 -453
-472 -591 -586 -1104 -919 -2654 -1486 -4610 -1688 -171 -18 -220 -19 -398
-11 -1932 93 -3987 1152 -4932 2542 -46 68 -110 157 -142 199 -308 409 -611
1027 -822 1676 -206 638 -335 1297 -403 2073 -22 248 -25 1092 -5 1325 104
1214 380 2090 942 2985 54 86 110 181 125 211 55 107 271 415 449 639 328 412
721 809 1111 1120 903 720 1949 1175 3065 1334 309 44 490 58 856 63 955 15
1783 -101 2666 -373 675 -207 1289 -490 2047 -942 134 -80 270 -156 301 -169
170 -68 368 -47 526 56 52 33 2213 2110 2392 2298 121 127 179 279 170 443
-15 258 -191 471 -443 535 -74 19 -213 18 -285 -1z m-15075 -9715 c149 -1664
657 -3172 1429 -4235 45 -61 118 -165 163 -230 292 -425 748 -899 1229 -1280
287 -229 664 -479 1012 -674 62 -34 111 -64 109 -66 -10 -10 -886 43 -1252 77
-1890 171 -3588 552 -5030 1129 -328 131 -815 349 -815 365 0 3 123 144 273
313 571 642 879 1024 1170 1452 297 438 443 701 961 1745 204 409 291 597 553
1185 97 220 178 398 180 397 1 -2 9 -82 18 -178z"/>
</g>
</svg>
