<?xml version="1.0" standalone="no"?>
<!DOCTYPE svg PUBLIC "-//W3C//DTD SVG 20010904//EN"
 "http://www.w3.org/TR/2001/REC-SVG-20010904/DTD/svg10.dtd">
<svg version="1.0" xmlns="http://www.w3.org/2000/svg"
 width="2048.000000pt" height="2048.000000pt" viewBox="0 0 2048.000000 2048.000000"
 preserveAspectRatio="xMidYMid meet">

<g transform="translate(0.000000,2048.000000) scale(0.100000,-0.100000)"
fill="#c9c7c7" stroke="none">
<path d="M3545 15354 c-596 -30 -991 -83 -1443 -194 -1168 -289 -1909 -839
-2075 -1543 -18 -78 -21 -121 -21 -277 1 -166 3 -195 26 -280 74 -277 195
-479 417 -700 187 -186 387 -326 672 -470 550 -278 1224 -451 2059 -527 241
-22 957 -25 1200 -5 1357 110 2425 528 2919 1142 156 194 249 386 299 614 24
113 23 360 -2 476 -106 496 -483 909 -1116 1226 -563 282 -1306 464 -2135 524
-148 11 -682 20 -800 14z m820 -1183 c777 -76 1404 -256 1802 -517 112 -74
236 -195 264 -258 l21 -48 -26 -53 c-33 -66 -151 -181 -261 -253 -752 -494
-2298 -677 -3570 -421 -544 109 -990 288 -1259 508 -76 61 -151 155 -161 200
-9 40 24 101 94 174 313 329 1135 603 2001 667 80 5 163 12 185 14 80 8 803
-3 910 -13z"/>
<path d="M10470 15320 c-746 -42 -1435 -438 -1859 -1068 -174 -259 -305 -573
-364 -877 -97 -488 -46 -1037 139 -1505 331 -836 1076 -1381 1937 -1417 165
-7 185 -17 232 -108 28 -56 30 -65 30 -179 0 -112 -2 -125 -28 -178 -52 -107
-25 -101 -452 -94 -203 4 -770 13 -1260 21 -489 9 -1257 22 -1705 30 -1318 25
-1393 23 -1670 -36 -152 -33 -384 -115 -535 -189 -734 -361 -1231 -1058 -1341
-1880 -20 -150 -22 -453 -5 -590 41 -315 116 -564 252 -835 202 -401 528 -750
919 -985 299 -181 676 -301 1027 -330 100 -8 1215 -10 4058 -8 3660 3 3927 5
4025 21 267 44 494 116 720 228 247 123 441 261 628 449 380 379 613 840 699
1382 25 162 25 553 0 733 -163 1147 -1005 1929 -2133 1981 -163 8 -178 15
-221 102 -26 53 -28 66 -28 177 0 104 3 127 23 171 13 29 35 63 50 77 l27 25
2325 10 c2536 11 2376 7 2634 68 251 60 553 191 761 330 583 389 967 993 1070
1684 23 149 30 430 16 580 -99 1035 -821 1887 -1814 2140 -321 81 58 74 -4217
76 -2093 1 -3866 -2 -3940 -6z m7805 -1243 c504 -102 890 -436 1020 -881 132
-458 -49 -957 -455 -1256 -103 -75 -294 -171 -412 -204 -195 -56 -106 -54
-2568 -61 -1458 -4 -2303 -10 -2354 -16 -155 -20 -345 -97 -486 -197 -166
-117 -337 -328 -439 -542 -256 -536 -215 -1207 102 -1688 246 -373 598 -571
1012 -572 269 0 551 -93 742 -244 188 -149 308 -351 366 -616 24 -114 29 -377
9 -475 -106 -500 -498 -874 -1029 -982 -84 -17 -285 -18 -4028 -18 -3777 0
-3943 1 -4025 18 -341 74 -619 245 -811 500 -76 100 -161 274 -195 397 -35
128 -44 353 -20 481 84 446 424 816 877 953 222 67 174 66 1849 36 613 -11
1394 -25 1735 -31 341 -5 809 -11 1040 -12 l420 -2 98 27 c201 56 380 161 532
313 416 417 562 1106 365 1717 -42 128 -135 315 -211 423 -80 112 -220 254
-321 323 -100 68 -241 135 -353 167 -69 20 -136 30 -285 40 -276 20 -382 45
-550 131 -209 107 -389 304 -484 531 -92 220 -128 505 -91 728 88 546 583 979
1169 1024 56 5 1809 8 3896 7 3613 -1 3799 -2 3885 -19z"/>
</g>
</svg>
