<?xml version="1.0" standalone="no"?>
<!DOCTYPE svg PUBLIC "-//W3C//DTD SVG 20010904//EN"
 "http://www.w3.org/TR/2001/REC-SVG-20010904/DTD/svg10.dtd">
<svg version="1.0" xmlns="http://www.w3.org/2000/svg"
 width="1200.000000pt" height="1200.000000pt" viewBox="0 0 1200.000000 1200.000000"
 preserveAspectRatio="xMidYMid meet">

<g transform="translate(0.000000,1200.000000) scale(0.100000,-0.100000)"
fill="#b8872e" stroke="none">
<path d="M2043 11986 c-103 -33 -191 -121 -223 -223 -19 -63 -20 -92 -20 -912
0 -939 -2 -907 66 -1007 36 -54 64 -78 134 -115 l45 -24 3955 0 3955 0 45 24
c70 37 98 61 134 115 68 100 66 68 66 1007 0 822 -1 849 -20 912 -26 84 -96
164 -178 204 l-57 28 -3930 2 c-3213 1 -3938 -1 -3972 -11z m7477 -1136 l0
-460 -3520 0 -3520 0 0 460 0 460 3520 0 3520 0 0 -460z"/>
<path d="M2072 9569 c-101 -20 -192 -95 -241 -198 l-26 -56 -3 -455 c-3 -513
-3 -520 79 -777 104 -323 255 -601 485 -888 94 -117 319 -346 683 -695 124
-118 257 -254 298 -303 185 -222 283 -421 335 -679 30 -149 32 -479 5 -628
-39 -211 -131 -421 -261 -594 -107 -143 -220 -261 -499 -519 -408 -379 -582
-571 -747 -822 -154 -236 -292 -565 -354 -846 l-26 -116 0 -846 c0 -820 1
-847 20 -910 26 -84 96 -164 178 -204 l57 -28 3945 0 3945 0 57 28 c82 40 152
120 178 204 19 63 20 90 20 914 l0 848 -34 133 c-93 359 -240 666 -461 961
-157 208 -242 297 -765 798 -344 329 -475 507 -569 771 -58 167 -76 287 -75
528 0 293 33 465 129 667 114 242 236 384 710 834 561 530 810 887 983 1404
84 252 84 252 80 765 l-3 455 -26 56 c-37 79 -90 133 -167 171 l-67 33 -3910
1 c-2150 1 -3929 -2 -3953 -7z m7448 -889 l0 -210 -51 -154 c-122 -373 -295
-627 -678 -1001 -405 -395 -627 -620 -695 -705 -277 -350 -433 -725 -476
-1149 -13 -133 -13 -415 1 -539 46 -429 196 -788 476 -1142 41 -52 186 -203
321 -335 505 -492 646 -637 733 -755 177 -237 284 -454 349 -710 19 -74 20
-111 20 -684 l0 -606 -3520 0 -3520 0 0 613 0 612 24 95 c47 184 117 352 214
515 119 202 339 442 761 831 452 417 670 720 801 1112 86 257 116 487 107 810
-8 273 -34 423 -113 664 -69 208 -213 465 -376 666 -62 77 -238 255 -710 717
-192 188 -276 279 -340 365 -157 213 -251 394 -325 626 l-37 119 -4 228 -3
227 3520 0 3521 0 0 -210z"/>
</g>
</svg>
