<?xml version="1.0" standalone="no"?>
<!DOCTYPE svg PUBLIC "-//W3C//DTD SVG 20010904//EN"
 "http://www.w3.org/TR/2001/REC-SVG-20010904/DTD/svg10.dtd">
<svg version="1.0" xmlns="http://www.w3.org/2000/svg"
 width="300.000000pt" height="289.000000pt" viewBox="0 0 300.000000 289.000000"
 preserveAspectRatio="xMidYMid meet">

<g transform="translate(0.000000,289.000000) scale(0.100000,-0.100000)"
fill="#636262" stroke="none">
<path d="M1655 2874 c-145 -20 -195 -31 -295 -64 -232 -76 -422 -192 -591
-360 -201 -200 -331 -443 -386 -720 -26 -128 -23 -374 5 -507 107 -501 454
-877 959 -1042 187 -61 287 -76 513 -76 215 0 289 11 458 66 103 34 124 55
106 106 -13 39 -57 60 -212 104 -383 110 -664 327 -822 634 -80 156 -85 186
-85 475 0 290 3 308 81 466 156 314 443 536 834 645 178 49 222 80 206 142
-10 41 -128 85 -306 113 -93 14 -405 27 -465 18z m333 -159 c-3 -3 -52 -30
-109 -61 -150 -80 -224 -132 -326 -228 -276 -260 -423 -586 -423 -936 0 -350
141 -667 412 -926 105 -100 184 -155 341 -241 l108 -58 -118 -3 c-259 -7 -498
49 -709 166 -271 149 -481 396 -582 682 -60 172 -81 332 -63 490 41 348 236
675 526 881 158 113 397 207 576 228 81 9 375 14 367 6z"/>
<path d="M2000 2091 c-201 -28 -393 -176 -493 -381 -38 -78 -42 -93 -45 -181
-5 -112 10 -176 66 -282 67 -129 217 -256 351 -298 125 -38 346 -42 474 -8
132 35 308 178 374 305 91 173 85 378 -17 548 -78 130 -251 249 -405 281 -91
18 -235 26 -305 16z"/>
</g>
</svg>
